<svg enable-background="new 0 0 76 60" viewBox="0 0 76 60" xmlns="http://www.w3.org/2000/svg"><path d="m42 47.5v-20.1c0-1.3 1.1-2.4 2.4-2.4h21.3c2.1 0 3.2 2.6 1.6 4.1l-21.3 20.1c-1.5 1.4-4 .4-4-1.7z" fill="#09588e"/><g fill="#28ce6b"><path d="m66 18h-56c-1.1 0-2-.9-2-2v-6c0-1.1.9-2 2-2h56c1.1 0 2 .9 2 2v6c0 1.1-.9 2-2 2z"/><path d="m30 25h-20c-1.1 0-2 .9-2 2v6c0 1.1.9 2 2 2h20c1.1 0 2-.9 2-2v-6c0-1.1-.9-2-2-2z"/><path d="m30 42h-20c-1.1 0-2 .9-2 2v6c0 1.1.9 2 2 2h20c1.1 0 2-.9 2-2v-6c0-1.1-.9-2-2-2z"/></g></svg>