<?xml version="1.0" encoding="utf-8"?>
<!-- Generator: Adobe Illustrator 26.0.1, SVG Export Plug-In . SVG Version: 6.00 Build 0)  -->
<svg version="1.1" id="layer" xmlns="http://www.w3.org/2000/svg" xmlns:xlink="http://www.w3.org/1999/xlink" x="0px" y="0px"
	 viewBox="0 0 604.6 132.6" style="enable-background:new 0 0 604.6 132.6;" xml:space="preserve">
<style type="text/css">
	.st0{fill:#FF9D28;}
	.st1{fill:#68C5ED;}
	.st2{fill:#044D80;}
	.st3{fill:#E54747;}
</style>
<path class="st0" d="M0,48.7h55h33.4V15.6L0,48.7z"/>
<path class="st1" d="M88.4,15.6v117L130.2,0L88.4,15.6z"/>
<path class="st2" d="M88.4,48.7H55l33.4,83.8V48.7z"/>
<path class="st3" d="M0,48.7l63.6,21.5L55,48.7C55,48.7,0,48.7,0,48.7z"/>
<g>
	<path class="st2" d="M202.6,101.7c-0.5,0.5-1.3,1.1-2.4,1.8c-1.1,0.7-2.6,1.5-4.4,2.2c-1.8,0.7-4,1.4-6.7,1.9
		c-2.6,0.5-5.6,0.8-9,0.8c-6.5,0-12.2-1.1-17-3.1c-4.8-2.1-8.7-5-11.8-8.8s-5.4-8.2-6.8-13.3c-1.5-5.1-2.2-10.8-2.2-16.9
		s0.8-11.8,2.4-17c1.6-5.2,3.9-9.7,7.1-13.5c3.1-3.8,7.1-6.8,11.8-8.9s10.3-3.2,16.7-3.2c3.1,0,6,0.3,8.5,0.8c2.5,0.6,4.8,1.2,6.7,2
		s3.5,1.6,4.7,2.4c1.3,0.8,2.2,1.6,2.8,2.1c0.7,0.6,1.4,1.4,1.9,2.3s0.8,1.9,0.8,2.9c0,1.6-0.6,3.2-1.8,4.8s-2.5,3.1-4,4.5
		c-1-1-2.1-2-3.3-3s-2.6-1.9-4.1-2.7s-3.2-1.4-5.1-1.9c-1.9-0.5-4-0.8-6.4-0.8c-4.1,0-7.6,0.8-10.4,2.5c-2.8,1.7-5,3.8-6.7,6.5
		s-2.9,5.7-3.6,9.1c-0.7,3.4-1.1,6.9-1.1,10.5c0,3.8,0.4,7.4,1.1,10.9c0.7,3.5,2,6.5,3.8,9.2s4.1,4.8,7,6.4s6.4,2.4,10.7,2.4
		c2.3,0,4.3-0.3,6.2-0.8c1.9-0.6,3.6-1.3,5-2.1c1.5-0.8,2.7-1.7,3.8-2.5c1.1-0.9,2-1.7,2.7-2.3c0.5,0.6,1,1.3,1.7,2.1
		c0.7,0.8,1.3,1.7,1.8,2.5c0.6,0.9,1,1.8,1.5,2.7c0.4,0.9,0.6,1.7,0.6,2.4c0,1.1-0.2,1.9-0.6,2.7C204.1,100,203.4,100.8,202.6,101.7
		L202.6,101.7z M265,92.4c0,6.4,0.9,11.1,2.8,14c-1.5,0.6-2.8,1-4.1,1.2c-1.3,0.2-2.6,0.4-4,0.4c-2.9,0-5.1-0.6-6.6-1.7
		s-2.5-2.8-2.9-4.9c-1.8,1.9-4.1,3.5-7.1,4.8c-2.9,1.3-6.5,1.9-10.7,1.9c-2.2,0-4.4-0.3-6.6-0.9c-2.2-0.6-4.2-1.6-6-3
		s-3.2-3.2-4.4-5.5c-1.1-2.3-1.7-5.1-1.7-8.4c0-4.1,1-7.5,3-10.1s4.5-4.6,7.5-6.1s6.3-2.5,9.7-3.1c3.5-0.6,6.7-0.9,9.6-1.1
		c1-0.1,1.9-0.1,2.9-0.1h2.6v-2.2c0-3.1-0.8-5.3-2.5-6.7c-1.7-1.3-4.4-2-8.1-2c-3.5,0-6.6,0.6-9.3,1.7s-5.4,2.4-8,3.9
		c-1.1-1.4-2.1-2.9-2.7-4.6c-0.7-1.7-1-2.9-1-3.7c0-1.1,0.6-2.2,1.9-3.3c1.3-1.1,3-2,5.2-2.9s4.7-1.5,7.6-2.1c2.8-0.5,5.8-0.8,9-0.8
		c4.4,0,8.1,0.4,11.1,1.3s5.5,2.3,7.4,4.1c1.9,1.9,3.3,4.2,4.1,7c0.8,2.8,1.2,6.1,1.2,9.8L265,92.4L265,92.4z M249.4,78.3h-1.7
		c-0.6,0-1.1,0-1.7,0.1c-2,0.2-4,0.4-6,0.7c-2,0.3-3.8,0.9-5.3,1.7c-1.5,0.8-2.8,1.9-3.8,3.2c-1,1.3-1.5,3-1.5,5
		c0,2.3,0.6,4.2,1.9,5.8c1.3,1.6,3.5,2.4,6.6,2.4c1.5,0,3-0.2,4.4-0.6s2.6-0.9,3.7-1.6s1.9-1.4,2.5-2.1c0.6-0.8,0.9-1.5,0.9-2.1
		L249.4,78.3L249.4,78.3z M295.3,54.3c1.3-1.5,3.3-3.1,6.1-4.7c2.8-1.6,6.2-2.4,10.4-2.4c3,0,5.9,0.5,8.6,1.5s5.1,2.7,7.2,4.9
		c2.1,2.3,3.8,5.3,5,9c1.3,3.7,1.9,8.3,1.9,13.8c0,6.3-0.7,11.6-2.2,15.7s-3.3,7.4-5.6,9.7c-2.3,2.4-4.9,4.1-7.7,5.1
		c-2.8,1-5.7,1.5-8.5,1.5c-2.3,0-4.4-0.3-6.1-0.8s-3.2-1.1-4.4-1.8c-1.2-0.6-2.1-1.3-2.8-1.9c-0.6-0.6-1.1-1.1-1.2-1.3v30h-16.6V49
		c0.4-0.1,0.9-0.2,1.5-0.2c0.5-0.1,1.1-0.1,1.7-0.2c0.7,0,1.4-0.1,2.3-0.1c2.7,0,5,0.4,6.9,1.3C293.6,50.7,294.8,52.2,295.3,54.3
		L295.3,54.3z M317.3,76.8c0-2.4-0.2-4.7-0.6-6.8c-0.4-2.1-1.1-3.9-2-5.5c-0.9-1.5-2.2-2.7-3.8-3.6c-1.6-0.9-3.5-1.3-5.8-1.3
		c-3.4,0-5.8,0.7-7.1,1.9c-1.3,1.3-2,2.7-2,4.3v25.9c0.6,0.7,1.8,1.4,3.5,2.3s3.6,1.3,5.8,1.3c4.1,0,7.1-1.6,9.1-4.9
		C316.3,87.2,317.3,82.7,317.3,76.8z M347.3,97.8c-0.6-1.6-0.9-3.3-1.1-5.1c-0.2-1.8-0.2-3.6-0.2-5.4V30.8c0.6-0.1,1.2-0.2,1.8-0.2
		c0.6-0.1,1.2-0.1,1.8-0.2c0.6,0,1.3-0.1,1.9-0.1c1.3,0,2.6,0.1,3.9,0.4c1.3,0.2,2.5,0.7,3.5,1.5c1.1,0.7,1.9,1.7,2.6,3
		c0.6,1.3,1,2.9,1,4.9v8.7h17.1v12.3h-17v26c0,5.7,2.3,8.5,6.9,8.5c1.1,0,2.2-0.2,3.2-0.5c1-0.4,1.9-0.8,2.7-1.2
		c0.8-0.4,1.5-0.9,2.1-1.4s1-0.9,1.3-1.1c1.2,1.8,2.2,3.3,2.8,4.6c0.6,1.3,1,2.5,1,3.7c0,1.1-0.4,2.1-1.3,3.1s-2.1,2-3.6,2.8
		c-1.5,0.9-3.4,1.6-5.6,2.1s-4.6,0.8-7.2,0.8c-5,0-9-1-11.8-2.9C350.5,103.5,348.5,101,347.3,97.8L347.3,97.8z M421.6,96.2
		c2,0,3.8-0.2,5.4-0.7c1.5-0.4,2.9-1,4.2-1.6c1.2-0.6,2.3-1.4,3.2-2.1c0.9-0.8,1.7-1.5,2.4-2.1c1,1.2,2,2.8,3.1,4.7
		c1.1,1.9,1.6,3.5,1.6,4.7c0,1.8-1,3.4-3,4.9c-1.7,1.3-4.1,2.4-7.3,3.4c-3.1,0.9-6.8,1.4-11,1.4c-3.8,0-7.6-0.5-11.3-1.5
		c-3.7-1-7-2.7-9.9-5.1s-5.2-5.7-7-9.8c-1.8-4.1-2.7-9.3-2.7-15.5c0-5.1,0.8-9.5,2.4-13.2s3.7-6.8,6.3-9.2c2.6-2.4,5.6-4.2,9-5.4
		c3.3-1.1,6.7-1.7,10.2-1.7c4.5,0,8.4,0.7,11.6,2.1s5.7,3.3,7.7,5.7s3.4,5.1,4.3,8.2s1.3,6.3,1.3,9.7v1.7c0,0.7,0,1.3-0.1,2.1
		c0,0.7-0.1,1.4-0.1,2.1s-0.1,1.2-0.2,1.6h-35.9c0.3,4.5,1.7,8.2,4.2,11.2C412.4,94.7,416.3,96.2,421.6,96.2L421.6,96.2z
		 M427.2,71.5c0-3.9-0.8-7.1-2.3-9.5s-4.2-3.7-8.1-3.7c-3.4,0-6,1.2-8,3.5s-3,5.5-3,9.7H427.2L427.2,71.5z M471,54.6
		c0.5-0.7,1.1-1.5,1.9-2.4s1.8-1.7,3-2.4s2.5-1.3,3.9-1.8s2.9-0.7,4.6-0.7c1,0,2,0.1,3.1,0.2c1.1,0.2,2.1,0.5,3,0.9s1.7,1,2.3,1.8
		c0.6,0.8,0.9,1.7,0.9,2.8c0,1.8-0.4,3.8-1.3,6.1c-0.9,2.3-1.8,4.3-2.7,5.9c-1.4-1.1-2.8-2-4.1-2.6c-1.4-0.6-3-0.9-4.9-0.9
		c-2.5,0-4.6,0.7-6.3,2.2c-1.7,1.5-2.6,3.2-2.6,5.3v39.4h-16.6V48.9c0.4-0.1,0.9-0.2,1.5-0.2c0.5-0.1,1.1-0.1,1.7-0.2
		c0.6,0,1.4-0.1,2.3-0.1c2.6,0,4.9,0.5,6.8,1.5C469.3,51,470.5,52.5,471,54.6L471,54.6z M518.1,54.6c0.5-0.7,1.1-1.5,1.9-2.4
		c0.8-0.9,1.8-1.7,3-2.4s2.5-1.3,3.9-1.8s2.9-0.7,4.6-0.7c1,0,2,0.1,3.1,0.2c1.1,0.2,2.1,0.5,3,0.9s1.7,1,2.3,1.8s0.9,1.7,0.9,2.8
		c0,1.8-0.4,3.8-1.3,6.1c-0.9,2.3-1.8,4.3-2.7,5.9c-1.4-1.1-2.8-2-4.1-2.6c-1.4-0.6-3-0.9-4.9-0.9c-2.5,0-4.6,0.7-6.3,2.2
		c-1.7,1.5-2.6,3.2-2.6,5.3v39.4h-16.6V48.9c0.4-0.1,0.9-0.2,1.5-0.2c0.5-0.1,1.1-0.1,1.7-0.2c0.6,0,1.4-0.1,2.3-0.1
		c2.6,0,4.9,0.5,6.8,1.5C516.4,51,517.6,52.5,518.1,54.6L518.1,54.6z M597.2,92.4c0,6.4,0.9,11.1,2.8,14c-1.5,0.6-2.8,1-4.1,1.2
		s-2.6,0.4-4,0.4c-2.9,0-5.1-0.6-6.6-1.7s-2.5-2.8-2.9-4.9c-1.8,1.9-4.1,3.5-7.1,4.8c-2.9,1.3-6.5,1.9-10.7,1.9
		c-2.2,0-4.4-0.3-6.6-0.9c-2.2-0.6-4.2-1.6-6-3s-3.2-3.2-4.4-5.5c-1.1-2.3-1.7-5.1-1.7-8.4c0-4.1,1-7.5,3-10.1s4.5-4.6,7.5-6.1
		s6.3-2.5,9.7-3.1c3.5-0.6,6.7-0.9,9.6-1.1c1-0.1,1.9-0.1,2.9-0.1h2.6v-2.2c0-3.1-0.8-5.3-2.5-6.7c-1.7-1.3-4.4-2-8.1-2
		c-3.5,0-6.6,0.6-9.3,1.7s-5.4,2.4-8,3.9c-1.1-1.4-2.1-2.9-2.7-4.6c-0.7-1.7-1-2.9-1-3.7c0-1.1,0.6-2.2,1.9-3.3c1.3-1.1,3-2,5.2-2.9
		s4.7-1.5,7.6-2.1c2.8-0.5,5.8-0.8,9-0.8c4.4,0,8.1,0.4,11.1,1.3s5.5,2.3,7.4,4.1c1.9,1.9,3.3,4.2,4.1,7s1.2,6.1,1.2,9.8L597.2,92.4
		L597.2,92.4z M581.6,78.3h-1.7c-0.6,0-1.1,0-1.7,0.1c-2,0.2-4,0.4-6,0.7c-2,0.3-3.8,0.9-5.3,1.7c-1.5,0.8-2.8,1.9-3.8,3.2
		c-1,1.3-1.5,3-1.5,5c0,2.3,0.6,4.2,1.9,5.8c1.3,1.6,3.5,2.4,6.6,2.4c1.5,0,3-0.2,4.4-0.6s2.6-0.9,3.7-1.6c1.1-0.7,1.9-1.4,2.5-2.1
		c0.6-0.8,0.9-1.5,0.9-2.1L581.6,78.3L581.6,78.3z"/>
</g>
</svg>
