<svg width="87" height="23" viewBox="0 0 87 23" fill="none" xmlns="http://www.w3.org/2000/svg">
<path fill-rule="evenodd" clip-rule="evenodd" d="M30.5913 9.48934C30.5913 10.1147 30.5913 10.74 30.5913 11.3653V22.0534C30.5913 22.0919 30.5877 22.1322 30.5841 22.1726C30.5758 22.2659 30.5675 22.3594 30.6035 22.4298C30.6664 22.5527 30.8005 22.7136 30.914 22.7221C31.2884 22.7502 31.2662 22.5044 31.2464 22.2847C31.2421 22.2367 31.2379 22.1901 31.2379 22.1477C31.243 15.8889 31.2428 9.63016 31.2426 3.37135C31.2426 2.4411 31.2426 1.51085 31.2426 0.580599C31.2426 0.55215 31.2455 0.521491 31.2485 0.490738C31.2555 0.418429 31.2626 0.345598 31.2311 0.299732C31.1495 0.180628 31.0309 0.0241134 30.91 0.00655319C30.5753 -0.0417966 30.5833 0.186333 30.5905 0.396841C30.5916 0.427331 30.5926 0.457451 30.5926 0.486308C30.5911 3.48735 30.5912 6.48833 30.5913 9.48934ZM18.5217 2.31825L17.5566 2.13893C17.7941 1.35454 18.176 0.719324 18.8546 0.31859C20.197 -0.474004 22.5277 0.303797 22.8103 2.05676C22.903 2.63176 22.8089 3.15809 22.4847 3.59452C21.9454 4.32029 21.3615 5.0132 20.7782 5.70543L20.5433 5.98432C20.3523 6.21142 20.1438 6.42377 19.9171 6.65471C19.808 6.76586 19.6947 6.88133 19.577 7.00481C19.6468 7.01074 19.7113 7.01744 19.7722 7.02376C19.8935 7.03637 20.0007 7.04751 20.1079 7.04814C20.2333 7.0489 20.3587 7.04981 20.4841 7.05072C21.1026 7.05521 21.7211 7.0597 22.3392 7.04566C22.6888 7.03774 22.8361 7.16963 22.8047 7.51883C22.7992 7.5803 22.8026 7.64391 22.8059 7.70712C22.8112 7.80616 22.8164 7.90424 22.7872 7.99162C22.7484 8.107 22.6116 8.27229 22.5168 8.27325C21.188 8.28736 19.859 8.2867 18.4377 8.28598H18.4375L18.4345 8.28598C18.1175 8.28582 17.7959 8.28566 17.4687 8.28566C17.5211 8.15725 17.5624 8.03483 17.601 7.9202L17.601 7.92013C17.6773 7.69366 17.7434 7.49762 17.8646 7.346C18.5524 6.4855 19.2537 5.636 19.9551 4.78647L19.9553 4.78623C20.3233 4.34051 20.6913 3.89478 21.0574 3.44745C21.1866 3.28941 21.2971 3.11066 21.3883 2.92742C21.7134 2.27493 21.6257 1.72808 21.1483 1.33899C20.6441 0.928042 19.7579 0.883474 19.3036 1.30845C19.1057 1.4937 18.9467 1.72089 18.7757 1.96531L18.7757 1.96533C18.6955 2.08003 18.6126 2.19853 18.5217 2.31825ZM14.0918 13.934H18.792C18.7628 14.0167 18.7372 14.0934 18.713 14.1659C18.6647 14.3103 18.6222 14.4375 18.5687 14.5598C17.0908 17.9394 13.2347 19.802 9.66293 18.6601C7.0033 17.8099 5.28862 15.9993 4.62758 13.3045C3.94963 10.5405 4.71424 8.11436 6.75949 6.13502C7.99775 4.93673 9.49162 4.26887 11.2218 4.16332L11.2602 4.16109C11.5128 4.14677 11.7581 4.13285 11.7504 3.73539C11.7297 2.68607 11.7345 1.6358 11.7487 0.586294C11.7531 0.253224 11.6058 0.16924 11.3149 0.206365C11.0935 0.234614 10.8707 0.256242 10.6478 0.277867C10.194 0.32192 9.74017 0.365962 9.29882 0.46595C3.52538 1.7738 -0.200918 7.185 0.569293 13.1109C1.37067 19.2761 7.10915 23.6983 13.2909 22.7977C18.0882 22.0987 21.2074 19.2996 22.6921 14.6856C23.2033 13.097 23.2644 11.4531 22.9962 9.79632H14.0918V13.934ZM67.1043 13.2576C67.0675 13.4754 67.0307 13.6931 66.9926 13.9107L66.9455 13.9081L66.8906 13.9049C66.8765 13.7852 66.8631 13.6654 66.8497 13.5456C66.821 13.2889 66.7922 13.0322 66.7571 12.7764C66.6831 12.2381 66.6096 11.6997 66.536 11.1613C66.2834 9.31199 66.0308 7.46265 65.7615 5.61578C65.6507 4.85532 65.6156 4.85531 64.8609 4.85516L64.8458 4.85515H63.0841C63.3872 6.46067 63.6692 7.95452 63.9508 9.44838C64.0525 9.98763 64.1543 10.5269 64.2561 11.0661C64.6073 12.9257 64.9585 14.7854 65.302 16.6464C65.3633 16.9785 65.4855 17.1339 65.8526 17.1187C66.5092 17.0916 67.1677 17.1018 67.8253 17.1119H67.8254H67.8255H67.8255H67.8256H67.8257H67.8258L67.9423 17.1137C68.223 17.1179 68.3421 17.0386 68.4003 16.7274C68.7526 14.8425 69.1249 12.9614 69.4971 11.0803L69.7004 10.0525C69.7789 9.65498 69.8638 9.25876 69.9487 8.86252C69.9867 8.68511 70.0247 8.50769 70.0621 8.33016C70.1978 8.61216 70.2464 8.88356 70.2944 9.1515L70.2944 9.15172C70.3018 9.19291 70.3091 9.23402 70.3168 9.27507C70.4607 10.0463 70.6054 10.8173 70.7501 11.5883L70.7538 11.6078L70.7542 11.6101C71.076 13.3245 71.3977 15.039 71.711 16.755C71.7633 17.0413 71.8924 17.1168 72.153 17.113C72.8021 17.1035 73.4518 17.0965 74.1005 17.116C74.4507 17.1265 74.5856 17.0034 74.6573 16.6452C75.1356 14.2517 75.6262 11.8607 76.1167 9.46966L76.1168 9.46933L76.1168 9.46899L76.1169 9.46866L76.117 9.46833L76.1171 9.468L76.1171 9.46778C76.3177 8.49006 76.5183 7.51234 76.718 6.53444C76.7917 6.17432 76.8585 5.81276 76.9296 5.42864L76.9304 5.42415C76.9644 5.24064 76.9993 5.05196 77.0363 4.85582C76.8256 4.85582 76.6224 4.85745 76.4247 4.85904C75.9668 4.86272 75.5378 4.86617 75.1098 4.84857C74.7792 4.83502 74.6657 4.98447 74.6205 5.27641C74.4639 6.2885 74.3055 7.30029 74.1472 8.31208L74.1456 8.322L74.1451 8.32545C73.9412 9.62778 73.7374 10.9301 73.5372 12.233C73.4779 12.6192 73.434 13.0077 73.3901 13.3964L73.3901 13.3965L73.3901 13.3967L73.3901 13.3969L73.39 13.3971L73.39 13.3973L73.39 13.3975C73.3699 13.575 73.3499 13.7524 73.3284 13.9297C73.0798 12.7826 72.9022 11.6341 72.725 10.4881L72.725 10.4879C72.6652 10.101 72.6054 9.71446 72.543 9.32832C72.3205 7.95242 72.0614 6.58206 71.7895 5.21504C71.7617 5.07551 71.5396 4.8793 71.4009 4.87367C70.6105 4.84103 69.8177 4.84628 69.0267 4.87185C68.9137 4.87548 68.7318 5.04307 68.7073 5.16103C68.2459 7.38067 67.7996 9.60336 67.3597 11.8274C67.2658 12.3021 67.1851 12.7794 67.1044 13.2568L67.1043 13.2576ZM81.267 15.1094C81.393 15.1094 81.5123 15.1099 81.627 15.1103C81.8944 15.1115 82.1363 15.1125 82.3779 15.1068C82.5188 15.1035 82.6606 15.0788 82.7991 15.0497C83.5209 14.8982 83.7761 14.6723 83.7863 13.9385C83.8108 12.1485 83.8023 10.3579 83.7938 8.56748V8.56633L83.79 7.74183C83.7881 7.30932 83.5634 7.01404 83.1247 6.94332C82.8525 6.89938 82.5782 6.86819 82.3039 6.83699C82.1243 6.81656 81.9447 6.79613 81.7656 6.77211C81.3676 6.71876 81.2562 6.88921 81.2591 7.28164C81.2714 8.91378 81.2698 10.546 81.2681 12.1782C81.2676 12.7389 81.267 13.2996 81.267 13.8603V15.1094ZM78.5648 10.9907C78.5648 10.4984 78.5655 10.0062 78.5662 9.51396C78.5681 8.13068 78.57 6.7474 78.5567 5.36434C78.5529 4.96771 78.675 4.83543 79.0681 4.84966C79.6791 4.87184 80.2907 4.88458 80.9022 4.89731C81.9189 4.91849 82.9355 4.93966 83.9493 5.00426C85.3238 5.09187 86.2427 5.96348 86.3176 7.1069L86.3259 7.23428L86.326 7.23469V7.23477V7.23486V7.23494V7.23502C86.3628 7.79482 86.3998 8.35586 86.3978 8.91607C86.3926 10.4732 86.3756 12.0304 86.3587 13.5874L86.3586 13.5902V13.5904V13.5907C86.3542 14.0023 86.3497 14.4139 86.3454 14.8255C86.3268 16.6251 85.2468 16.9835 84.018 17.046C82.9562 17.0999 81.8919 17.1016 80.8274 17.1032C80.2142 17.1042 79.6009 17.1051 78.9881 17.1161C78.6002 17.1232 78.5582 16.9349 78.56 16.617C78.5673 15.2126 78.5664 13.8082 78.5654 12.4038C78.5651 11.9327 78.5648 11.4617 78.5648 10.9907ZM47.1813 7.32657V7.32475C47.1816 7.07451 47.182 6.81911 47.182 6.55713C47.3832 6.58529 47.5811 6.60679 47.7753 6.62789L47.7753 6.6279C48.2464 6.67908 48.6955 6.72788 49.1168 6.86357C49.3565 6.94078 49.6007 7.38904 49.6214 7.68403C49.6616 8.25664 49.5731 8.84412 49.4866 9.41788L49.4857 9.4242C49.4224 9.84355 49.1248 10.0843 48.6995 10.1244C48.291 10.1629 47.8803 10.1981 47.4711 10.1925C47.3736 10.1911 47.1961 10.0233 47.1945 9.92944C47.179 9.08514 47.1801 8.24048 47.1813 7.32695V7.32657ZM50.6764 11.0545C50.6008 11.0236 50.5158 10.9889 50.4162 10.9495C50.5145 10.9252 50.596 10.904 50.6669 10.8855C50.7949 10.8522 50.8883 10.8279 50.983 10.811C51.6719 10.6881 52.1061 10.2886 52.1809 9.58931L52.194 9.46764C52.2643 8.81468 52.3358 8.15082 52.2798 7.50327C52.1399 5.88402 51.4894 5.13771 49.9019 4.99007C48.8807 4.89499 47.8517 4.8862 46.8224 4.87742C46.2524 4.87255 45.6823 4.86768 45.1133 4.84816C44.6797 4.83327 44.5575 4.97156 44.5591 5.41171C44.5693 8.11039 44.5641 10.8092 44.5588 13.508C44.5572 14.3395 44.5556 15.1711 44.5544 16.0026C44.5543 16.0832 44.5528 16.164 44.5512 16.2448C44.5472 16.4508 44.5432 16.6568 44.5634 16.8604C44.5741 16.9683 44.6902 17.1525 44.7621 17.1544C45.3896 17.171 46.0175 17.1697 46.6583 17.1684C46.833 17.168 47.0086 17.1677 47.1854 17.1677V16.513C47.1854 16.1308 47.1863 15.7486 47.1872 15.3664C47.1895 14.3491 47.1919 13.3318 47.1781 12.3149C47.1728 11.932 47.3045 11.7873 47.6728 11.8302C47.8287 11.8484 47.9849 11.8635 48.1412 11.8786C48.3622 11.8999 48.5831 11.9213 48.803 11.9512C49.3142 12.021 49.5949 12.3225 49.6112 12.8441C49.644 13.8916 49.6704 14.9393 49.6939 15.9869C49.6997 16.2444 49.6983 16.502 49.6968 16.7675C49.6961 16.8903 49.6954 17.0148 49.6954 17.1417C49.8941 17.1417 50.0894 17.1426 50.2819 17.1434C50.8792 17.1461 51.4508 17.1486 52.0212 17.1249C52.1262 17.1205 52.3071 16.8912 52.3087 16.7642C52.3247 15.4764 52.3259 14.188 52.2998 12.9003C52.2825 12.0486 51.8599 11.4646 51.0378 11.1935C50.9265 11.1568 50.8178 11.1123 50.6766 11.0546L50.6765 11.0546L50.6765 11.0546L50.6764 11.0545ZM56.487 10.9591H56.492C56.492 11.2877 56.4907 11.6163 56.4894 11.9449V11.9454C56.4863 12.7119 56.4833 13.4784 56.4969 14.2446C56.5106 15.0201 56.7297 15.2547 57.4629 15.3207C57.7746 15.3489 58.0933 15.3308 58.4063 15.3033C59.1187 15.2408 59.3678 15.0069 59.3871 14.2847C59.4231 12.9364 59.4329 11.5873 59.4427 10.2384V10.2382V10.2381V10.2379L59.4454 9.85877C59.4464 9.72399 59.4481 9.58909 59.4497 9.45414V9.45376V9.45338V9.453C59.4569 8.858 59.4641 8.26203 59.4162 7.67119C59.3487 6.83899 59.1445 6.68744 58.3022 6.65681C58.0659 6.64822 57.8284 6.65032 57.5922 6.66196C56.7726 6.70224 56.4952 6.98692 56.489 7.81635C56.4834 8.54965 56.4846 9.28295 56.4859 10.0162C56.4864 10.3305 56.487 10.6448 56.487 10.9591ZM62.2255 12.1463V12.1463V12.1465C62.198 13.0144 62.1705 13.8823 62.0936 14.7457C62.0158 15.6174 61.5161 16.302 60.7458 16.7085C59.0213 17.6187 57.2492 17.6305 55.5076 16.7767C54.5609 16.3126 54.006 15.4838 53.9855 14.4147C53.9604 13.0972 53.9606 11.7793 53.9608 10.4614V10.4608C53.9609 9.58618 53.9611 8.71157 53.9538 7.83706C53.9394 6.11006 55.0996 5.11628 56.4912 4.75802C57.6039 4.47152 58.7468 4.47295 59.8629 4.82568C61.3663 5.30076 62.1566 6.3475 62.185 7.9324C62.1977 8.6453 62.1945 9.35851 62.1913 10.0718V10.0723C62.1898 10.3926 62.1884 10.7128 62.1884 11.0331L62.2645 11.0349C62.2489 11.4051 62.2372 11.7757 62.2255 12.1462V12.1463V12.1463ZM43.0363 13.0377H40.4629C40.4546 13.2005 40.4476 13.3587 40.4406 13.5137L40.4406 13.5141C40.4254 13.8564 40.4108 14.1829 40.3853 14.5085C40.3495 14.9644 40.0937 15.2687 39.639 15.2911C38.2582 15.3593 37.9354 15.3489 37.8869 13.7978C37.8854 13.7518 37.8857 13.7058 37.8859 13.6598L37.8861 13.6069C37.8861 13.1644 37.8858 12.7218 37.8856 12.2793C37.8847 10.9727 37.8839 9.66617 37.8896 8.3596C37.8898 8.31883 37.8897 8.27769 37.8897 8.23635V8.23615C37.8891 7.94068 37.8885 7.63433 37.9857 7.37041C38.0831 7.10624 38.3053 6.80056 38.5485 6.70074C38.8483 6.57782 39.2326 6.60396 39.5705 6.64615C40.2223 6.72746 40.3658 6.91251 40.3872 7.58285C40.396 7.86049 40.3939 8.13853 40.3917 8.4371V8.43715V8.43719C40.3906 8.57764 40.3896 8.72264 40.3896 8.87428C40.5657 8.87428 40.7325 8.87379 40.8929 8.87332C41.2279 8.87234 41.5355 8.87143 41.8429 8.87524L41.8483 8.8753C42.4784 8.88302 42.7911 8.88685 42.9467 8.73244C43.1 8.58038 43.101 8.27487 43.1029 7.66849L43.1031 7.62684C43.1071 6.40441 42.5099 5.58004 41.4555 5.06917C40.1676 4.44521 38.8123 4.43586 37.4761 4.8364C36.2927 5.19113 35.3419 5.96569 35.2867 7.2576C35.1842 9.66688 35.2163 12.085 35.2772 14.4973C35.3114 15.851 36.097 16.7255 37.3927 17.1127C38.3964 17.4126 39.4297 17.4987 40.4374 17.2306C42.7776 16.6079 43.3597 15.1829 43.0363 13.0377Z" fill="#FF492C"/>
</svg>
