<?xml version="1.0" encoding="utf-8"?>
<!-- Generator: Adobe Illustrator 26.3.1, SVG Export Plug-In . SVG Version: 6.00 Build 0)  -->
<svg version="1.1" id="Layer_1" xmlns="http://www.w3.org/2000/svg" xmlns:xlink="http://www.w3.org/1999/xlink" x="0px" y="0px"
	 viewBox="0 0 259.4 48.9" style="enable-background:new 0 0 259.4 48.9;" xml:space="preserve">
<style type="text/css">
	.st0{fill-rule:evenodd;clip-rule:evenodd;fill:#FFFFFF;}
</style>
<g transform="translate(13)">
	<path class="st0" d="M-6.5,24.2c0.7,4.3,3.5,8,7.6,9.6c1.4,0.6,1.3,0.3,1.2-0.9L1,16.8c-0.3-1.5,0-3,0.8-4.3l3.5-6.4l3.5,6.4
		c0.8,1.3,1.1,2.8,0.8,4.3c-0.4,5.4-0.8,10.7-1.3,16.1c-0.1,1.3-0.2,1.5,1.2,0.9c4-1.7,6.9-5.3,7.6-9.6h-3.3c-0.6,0-1.1-0.5-1.1-1.1
		l0,0c0-0.6,0.5-1.1,1.1-1.1h3.5v-3.8h-3.5c-0.6,0-1.1-0.5-1.1-1.1l0,0c0-0.6,0.5-1.1,1.1-1.1h3.5v-3.5c0-0.1,0-0.2,0-0.3h-3.5
		c-0.6,0-1.1-0.5-1.1-1.1l0,0c0-0.6,0.5-1.1,1.1-1.1h3.2C16,3.5,9.8-0.9,3.3,0.2c-5,0.8-8.9,4.8-9.8,9.8h3.2c0.6,0,1.1,0.5,1.1,1.1
		l0,0c0,0.6-0.5,1.1-1.1,1.1h-3.5c0,0.1,0,0.2,0,0.3V16h3.5c0.6,0,1.1,0.5,1.1,1.1l0,0c0,0.6-0.5,1.1-1.1,1.1h-3.5V22h3.5
		c0.6,0,1.1,0.5,1.1,1.1l0,0c0,0.6-0.5,1.1-1.1,1.1H-6.5L-6.5,24.2z"/>
	<path class="st0" d="M-11.3,20.2c1,0,1.7,0.8,1.7,1.8c0,0.1,0,0.1,0,0.2l0,0c0.1,8.4,6.8,15.3,14.9,15.3s14.8-6.9,14.9-15.3l0,0
		c0-0.1,0-0.1,0-0.2c0-1,0.7-1.7,1.7-1.8s1.7,0.7,1.8,1.7c0,0,0,0.1,0,0.1c0,0.1,0,0.1,0,0.2C23.5,32,16.2,40.1,6.9,40.9v4.8h0.3
		c1.7,0,3.1,1.4,3,3.2H0.4c0-1.7,1.3-3.1,3-3.2h0.3v-4.8C-5.5,40.1-12.9,32-13,22.2c0-0.1,0-0.1,0-0.2C-13,21-12.2,20.2-11.3,20.2
		L-11.3,20.2z M-13,22.3c0,0,0-0.1,0-0.1C-13,22.2-13,22.3-13,22.3L-13,22.3z M23.6,22.2c0,0,0,0.1,0,0.1
		C23.6,22.3,23.6,22.2,23.6,22.2L23.6,22.2z M21.7,23.7C21.7,23.7,21.6,23.7,21.7,23.7C21.6,23.7,21.7,23.7,21.7,23.7L21.7,23.7z"/>
</g>
<path class="st0" d="M51.6,9.4V40h7.3v-8.3h3.4c3.2,0,7.1-0.5,9.7-2.6c2.5-2.1,3.3-5.2,3.3-8.4s-0.7-6.4-3.2-8.5
	c-2.6-2.3-6.6-2.8-9.9-2.8L51.6,9.4L51.6,9.4z M62.7,25h-3.9V16H62c1.5-0.1,3.1,0.2,4.4,1c0.9,0.8,1.4,2,1.3,3.3
	c0.1,1.3-0.3,2.6-1,3.6C65.8,24.9,63.9,25,62.7,25z"/>
<path class="st0" d="M79.2,28.1c-0.1,3.2,1.2,6.4,3.4,8.7c4.8,4.7,12.5,4.7,17.3,0c4.6-4.9,4.6-12.5,0-17.4
	c-4.8-4.7-12.5-4.7-17.3,0C80.4,21.7,79.1,24.8,79.2,28.1z M91.3,34c-1.4,0-2.7-0.6-3.6-1.6c-1-1.2-1.5-2.7-1.4-4.3
	c-0.1-1.6,0.4-3.1,1.4-4.3c1.7-2,4.8-2.2,6.8-0.4c0.2,0.1,0.3,0.3,0.4,0.4c1,1.2,1.5,2.7,1.4,4.3c0.1,1.5-0.4,3.1-1.4,4.3
	C94,33.4,92.7,34,91.3,34z"/>
<path class="st0" d="M107.9,27.9c-0.1,3.2,1,6.4,3.2,8.8c1.8,2.2,4.5,3.5,7.3,3.6c2.3,0,4.5-0.9,6-2.6V40h7V7.6h-7v10.6
	c-1.7-1.5-3.8-2.3-6.1-2.3c-2.8,0-5.5,1.2-7.3,3.4C108.9,21.6,107.8,24.7,107.9,27.9z M123.1,32.4c-0.8,1-2,1.6-3.3,1.6
	c-1.3,0-2.6-0.6-3.4-1.6c-1-1.2-1.5-2.7-1.5-4.2c-0.1-1.6,0.5-3.1,1.4-4.3c0.8-1.1,2.1-1.7,3.4-1.7c1.3,0,2.5,0.6,3.3,1.7
	c1,1.2,1.4,2.8,1.4,4.3C124.6,29.6,124.1,31.2,123.1,32.4L123.1,32.4z"/>
<path class="st0" d="M138.5,7.6V40h7v-2.3c1.6,1.7,3.7,2.6,6,2.6c2.8-0.1,5.5-1.4,7.3-3.6c2.1-2.4,3.3-5.6,3.2-8.8
	c0.1-3.2-1-6.3-3.1-8.7c-1.8-2.1-4.5-3.4-7.3-3.4c-2.3-0.1-4.4,0.8-6.1,2.3V7.6H138.5z M146.8,32.4c-1-1.2-1.4-2.7-1.4-4.2
	c-0.1-1.6,0.4-3.1,1.4-4.3c0.8-1.1,2-1.7,3.3-1.7c1.3,0,2.6,0.6,3.4,1.7c1,1.2,1.5,2.8,1.4,4.3c0.1,1.5-0.5,3-1.5,4.2
	c-0.8,1-2.1,1.6-3.4,1.6C148.8,34,147.6,33.4,146.8,32.4z"/>
<path class="st0" d="M167.8,7.6V40h7V7.6H167.8z"/>
<path class="st0" d="M180.7,32.1c-0.1,2.3,0.8,4.4,2.5,6c1.7,1.5,3.9,2.3,6.2,2.2c2.1,0,4-0.8,5.4-2.4v2h6.7V25
	c0-2.6-0.6-5.2-2.7-6.9c-1.9-1.5-4.4-2.3-6.8-2.2c-3.7,0-7.2,1.1-10.2,3.4l-0.4,0.3l3.2,4.9l0.4-0.3c0.9-0.7,1.8-1.2,2.9-1.6
	c1-0.4,2.1-0.6,3.2-0.6c2,0,3.2,0.8,3.3,2.9h-4.1c-2.5-0.1-4.9,0.5-7,1.8C181.6,27.8,180.6,29.9,180.7,32.1z M193.3,33.2
	c-0.7,0.6-1.7,1-2.6,0.9c-0.8,0-1.6-0.2-2.3-0.6c-0.5-0.4-0.7-0.9-0.7-1.5c0-1.7,2-1.9,3.2-1.9h3.4v0.6
	C194.5,31.7,194.1,32.6,193.3,33.2L193.3,33.2z"/>
<path class="st0" d="M207.1,27.9c-0.1,3.2,1,6.4,3.2,8.8c1.8,2.2,4.5,3.5,7.3,3.6c2.3,0,4.5-0.9,6-2.6V40h7V7.6h-7v10.6
	c-1.7-1.5-3.8-2.3-6.1-2.3c-2.8,0-5.5,1.2-7.3,3.4C208.1,21.6,207,24.7,207.1,27.9z M219,34c-1.3,0-2.6-0.6-3.4-1.6
	c-1-1.2-1.5-2.7-1.5-4.2c-0.1-1.6,0.5-3.1,1.5-4.3c0.8-1.1,2.1-1.7,3.4-1.7c1.3,0,2.5,0.6,3.3,1.7c1,1.2,1.4,2.8,1.4,4.3
	c0.1,1.5-0.4,3-1.4,4.2C221.5,33.4,220.3,34,219,34L219,34z"/>
<path class="st0" d="M239.9,37c2.3,2.2,5.4,3.4,8.6,3.3c3.4,0,6.7-1.3,9-3.8l0.3-0.3l-4.1-4.6l-0.3,0.4c-1.3,1.4-3.1,2.2-5,2.1
	c-1.2,0-2.4-0.4-3.3-1.1c-0.8-0.5-1.3-1.3-1.6-2.2h15.9v-3.9c0.2-3.1-1.1-6.1-3.3-8.2c-4.7-4.1-11.7-3.9-16.2,0.3
	c-2.4,2.3-3.6,5.6-3.5,8.9C236.3,31.4,237.5,34.6,239.9,37z M252.3,25.3h-8.6c0.2-0.9,0.7-1.7,1.5-2.3c0.9-0.7,2-1.1,3.1-1.1
	c1,0,2,0.3,2.8,1C251.7,23.6,252.1,24.4,252.3,25.3L252.3,25.3z"/>
</svg>
