<?xml version="1.0" encoding="utf-8"?>
<!-- Generator: Adobe Illustrator 26.3.1, SVG Export Plug-In . SVG Version: 6.00 Build 0)  -->
<svg version="1.1" id="Layer_1" xmlns="http://www.w3.org/2000/svg" xmlns:xlink="http://www.w3.org/1999/xlink" x="0px" y="0px"
	 viewBox="0 0 690.1 523.2" style="enable-background:new 0 0 690.1 523.2;" xml:space="preserve">
<style type="text/css">
	.st0{fill:#FFFFFF;}
</style>
<image style="overflow:visible;enable-background:new    ;" width="683" height="505" xlink:href="349F9908C846A47A.png"  transform="matrix(1 0 0 1 3.11 8.99)">
</image>
<path class="st0" d="M0,84.7v438.5l690.1-84.7V0L0,84.7z M214.7,393.9c-13.7,14.8-31.5,23.6-53.6,26.3c-14.7,1.8-27.6,0.5-38.8-4
	c-10.7-4.1-19.8-11.6-25.8-21.3c-6.1-9.8-9.1-21.5-9.1-35.2v-12.1c0-1.3,0.5-2.5,1.3-3.4c0.8-1,2-1.6,3.3-1.7l43.7-5.4
	c1.2-0.2,2.3,0.2,3.2,0.9c0.9,0.8,1.4,1.9,1.3,3.1v9.5c0,7.9,2,14,5.9,18.3s8.9,6.1,15,5.4c6-0.7,11.5-3.9,15.2-8.7
	c4-5,6-11.2,6.1-18.6c0-7.6-2.5-13.8-7.4-18.7c-4.9-4.8-14.8-11.7-29.4-20.5c-10.7-6.2-20.9-13.1-30.8-20.5
	c-8.2-6.5-15-14.6-20.1-23.8c-5.6-9.7-8.4-21.4-8.4-35.1c0-21.5,6.7-39.6,20.1-54.1c13.4-14.6,31-23.2,52.8-25.9
	c22.3-2.7,40.3,1.8,54,13.5c13.7,11.7,20.6,28.5,20.5,50.3v9.1c0,1.3-0.5,2.5-1.3,3.4c-0.8,1-2,1.6-3.2,1.7l-43.7,5.4
	c-2.1,0.3-4.2-1.1-4.5-3.2c0-0.2-0.1-0.5,0-0.8v-10.3c0-7.8-2-13.9-5.9-18.1s-9.2-5.9-15.8-5.1c-5.9,0.6-11.2,3.7-14.6,8.4
	c-3.7,4.9-5.5,11.2-5.5,19.1c-0.2,7.1,2.4,14,7.2,19.3c4.8,5.2,14.2,12.2,28.1,20.9c15.7,9.5,27.5,17.3,35.5,23.6
	c7.7,5.9,14,13.3,18.6,21.9c4.4,8.3,6.6,18.6,6.6,30.7C235.2,360.5,228.4,379.1,214.7,393.9z M430.5,379.6c0,1.3-0.5,2.5-1.3,3.4
	c-0.8,1-2,1.6-3.2,1.7l-44.5,5.5c-1.2,0.2-2.3-0.2-3.2-0.9c-0.9-0.8-1.4-1.9-1.3-3.1V222c0-1-0.3-1.6-1-1.6s-1.1,0.4-1.3,1.5
	L345,284.4c-1,2.4-1.9,3.7-2.7,3.8c-0.5,0.1-1.4-1-2.7-3.1L310.4,229c-0.5-0.7-1-1-1.5-1s-0.8,0.6-0.8,1.6v165
	c0,1.3-0.5,2.5-1.3,3.4c-0.8,1-2,1.6-3.2,1.7l-44.5,5.5c-1.2,0.2-2.3-0.2-3.2-0.9c-0.9-0.8-1.4-1.9-1.3-3.1V144.3
	c0-1.3,0.5-2.5,1.3-3.4c0.8-1,2-1.6,3.2-1.7l43.7-5.4c2.2-0.5,4.4,0.7,5.3,2.8l33.1,67c0.8,1.4,1.5,1.3,2.3-0.3l33.1-75.1
	c0.8-2.3,2.9-3.9,5.3-4.1l44.1-5.4c1.2-0.2,2.3,0.2,3.2,0.9c0.9,0.8,1.4,1.9,1.3,3.1L430.5,379.6z M603.8,180.4
	c0,1.3-0.5,2.5-1.3,3.4c-0.8,1-2,1.6-3.2,1.7l-44.5,5.4c-1.2,0.2-2.3-0.1-3.2-0.9c-0.9-0.8-1.4-1.9-1.3-3.1v-15.2
	c0-7.6-2-13.5-6.1-17.7s-9.5-5.9-16.3-5c-6.4,0.6-12.1,3.9-16,9c-4.1,5.2-6.1,11.6-6.1,19.2v129.2c0,7.6,2,13.5,6.1,17.7
	c4.1,4.2,9.4,5.9,16,5.1c6.5-0.6,12.4-3.9,16.3-9c4.1-5.2,6.1-11.6,6.1-19.2v-30.4c0-1.3-0.6-1.8-1.9-1.7l-16.7,2
	c-1.2,0.2-2.3-0.2-3.2-0.9c-0.9-0.8-1.4-1.9-1.3-3.1v-33.8c0.1-2.6,2-4.8,4.6-5.1l67.6-8.3c1.2-0.2,2.3,0.2,3.2,0.9
	c0.9,0.8,1.4,1.9,1.3,3.1v70.3c0,21.8-7,40.1-20.9,54.8s-32.3,23.5-55.1,26.3c-22.8,2.8-41.1-1.5-54.9-12.8
	c-13.8-11.4-20.7-27.9-20.7-49.7V184.2c0-21.8,6.9-40.1,20.7-54.8c13.8-14.7,32.1-23.5,54.9-26.3c22.8-2.8,41.2,1.5,55.1,13
	c13.9,11.5,20.9,28.1,20.9,49.9V180.4z"/>
</svg>
